<svg id="Layer_1" data-name="Layer 1" xmlns="http://www.w3.org/2000/svg" viewBox="0 0 847 1080"><defs><style>.cls-1{fill:#377771;}.cls-2{fill:#584d3d;}.cls-3{fill:#f7b2ad;}.cls-4{fill:#e8a07b;}.cls-5{fill:#ed6a5e;}.cls-6{fill:#e6e6e6;}.cls-7{fill:#1a1a1a;}.cls-8,.cls-9{fill:none;}.cls-8{stroke:#d19898;}.cls-13,.cls-8,.cls-9{stroke-miterlimit:10;stroke-width:0.25px;}.cls-9{stroke:#006837;}.cls-10{fill:#006837;}.cls-11{fill:#ffb691;}.cls-12{fill:#fff;}.cls-13{stroke:#000;}</style></defs><path class="cls-1" d="M777.09,0C653,93,539.39,215.29,482.59,349.92,464,394,451.93,440.57,451.22,487.7c-.67,44.22-1.05,101.87,40,135.52,32.1,26.28,67.38,49.65,98.9,76.83,94.33,81.33,182.42,176,229.58,285.37,13.16,30.49,22.86,62.19,27.27,94.58H0V0Z" transform="translate(0 0)"/><path class="cls-2" d="M290,865s-3-5-21-3c0,0-9,4-11,30,0,0-5,20-9,24s-9,25-3,43c0,0,17,21,21,17,0,0,6,2,15-17V947s17-20,21-28c0,0,9-13,9-17S290,865,290,865Z" transform="translate(0 0)"/><path class="cls-2" d="M460.15,946.57s-2.67,15.66-1.29,29.83c0,0,2.7,7.08,20.13,8.61,0,0,13.42,3.91,16.11,7s16.78,7,28.83,2.29c0,0,14.05-13.42,11.36-16.57,0,0,1.33-4.72-11.43-11.78l-8,0S502.38,952.67,497,949.53c0,0-8.74-7.06-11.42-7.06S460.15,946.57,460.15,946.57Z" transform="translate(0 0)"/><path class="cls-3" d="M535,600s-2-12.55-17-27.28c0,0-11.95,16.2-108.33,2.37l-.69-2.37L408.19,585h0l-.19,3s-3,2-8,10c0,0-2,4-2,6s-3,2-6,11a32.17,32.17,0,0,0,1,8c1,3-1,8-1,8s-3,5,0,22,4,24,4,24l6,5v7l-1,6a165.22,165.22,0,0,0-1,30v21l-3,4v2l-2,4-2,7a15.64,15.64,0,0,1-7,5c-5,2-26,23-26,23l-1,2-5,3-6,6s-14,16-20,25c0,0-17,17-24,28,0,0-7,0-10,3a30.83,30.83,0,0,1-7,5s-8,25-3,37c0,0,10,9,29,12l10-11,17-18,24-26,10-11,44-35s19-9,25-23c0,0,5-10,10-18l4-12v19s-1,63,0,76,0,51,0,51-1,19,0,28,3,20,3,20,11-6,21-3,14,5,14,5l1-14s8-44,8-50,2-12,1-24c0,0,7-31,6-45,0,0,1-43,1-63l1-7a177.22,177.22,0,0,0,10-38,139,139,0,0,0,7-28S537,641,535,600Z" transform="translate(0 0)"/><path class="cls-4" d="M417,358a29.27,29.27,0,0,1,4-26s3-6,1-16,1-22,1-22-3-10-4-13c0,0,5-13,12-10,0,0,8,23,9,25s5,17,5,18" transform="translate(0 0)"/><path class="cls-5" d="M349,381c-3,1-3,2-6,5s-7,18-6,21a6.83,6.83,0,0,0,4,4,4.94,4.94,0,0,1,1,3c-1,5,2,17,2,17l4,8,3,8,1,3c0,3,1,4,1,4l2,2,2,4,2,2v1l1,3s3,3,3,6,3,5,3,5a29.54,29.54,0,0,1,3,6c1,3,3,3,3,3a7.74,7.74,0,0,0,1,3,68.18,68.18,0,0,0,5,7l1,2,1,2,1,2,4,5,3,5,4,4,2,4,2,1,2,4a49,49,0,0,1,8,16c3,10,3,34,3,34,10,4,67,7,67,7,42,5,42-11,42-11v-7c0-3-1-11-1-11-2-17-2-18-8-34s-13-29-15-32-11-20-11-20l-3-4-5-8-4-7-4-8-6-11-8-15-7-10c3-10,9-13,12-16s3-8,3-8-19-30-28-31-16,5-16,5l-1,3-2,3-2,2s-7,4-8,5a16.52,16.52,0,0,0-9,9l-2,4s-4-7-9-8S349,381,349,381Z" transform="translate(0 0)"/><path class="cls-6" d="M321,301a7.89,7.89,0,0,0-5-7L80,428s-3,3-3,5v19s0,9,11,9,8-9,8-9l-7.5-16.5s-4-4,2-8Z" transform="translate(0 0)"/><path class="cls-7" d="M107,418.45a4.39,4.39,0,0,0-.49-1.95,4.57,4.57,0,0,0-2.49-2.13l-6.67,3.79s3.16,1.14,2.91,4Z" transform="translate(0 0)"/><path class="cls-7" d="M321,301l34-18s1.5-6-5.25-7L316,294S320,295,321,301Z" transform="translate(0 0)"/><path class="cls-8" d="M357,378a44.19,44.19,0,0,0,26.5,3.72" transform="translate(0 0)"/><path class="cls-9" d="M393,380s-3,6-3,10" transform="translate(0 0)"/><path class="cls-9" d="M446,404s-13,15-22,16" transform="translate(0 0)"/><path class="cls-10" d="M346.13,390.65S344,395,344,397s2,1,2,1l8-7Z" transform="translate(0 0)"/><path class="cls-10" d="M382,383.32c2.22,1.26,1.37,2.92,1,4-.19.56,1.24.87,1,1,0,0-.82.45-4,0h0" transform="translate(0 0)"/><path class="cls-11" d="M383.5,379.5v9s-27,2-37.5,9.5c0,0,1-8-1-12a63.78,63.78,0,0,0-6-9s-10-8-12-12c0,0-13-23-2-47,0,0,19-17,31-13a79.34,79.34,0,0,1,30,21s8,15,9,19,3,19,3,19,0,5-2,6-3,9-9,11c-1.12.37-4.87,1.63-13,0" transform="translate(0 0)"/><path class="cls-6" d="M418,281s-25-12-30.38-16-7.6-13-7.6-13l2.17-2h2.17l2.17-2h1.09l3.25-1,3.26-1h2.17l3.25-1h4.34l3.26-2h2.17S431,267,431,271,418,281,418,281Z" transform="translate(0 0)"/><path class="cls-2" d="M365,348a6.66,6.66,0,0,1-3,4c-3.36,1.81-6.44-1.59-14.29-2-2.92-.15-5.23-.27-7.71,1l-6,5-8,7s-2,2-5-1c0,0-9-17-9-30s9-28,11-29c0,0,16-9,29-8,0,0,9.5.5,15.5,4.5,0,0,8,7,12,13a4.38,4.38,0,0,0,3,1h16c4.78,2.21,5.61,3.62,5.5,4.5-.28,2.18-6.5,1.91-14,6-2.86,1.56-4.61,3.06-8,6A129.14,129.14,0,0,0,365,348Z" transform="translate(0 0)"/><path class="cls-11" d="M459,335c1-1,2-3,0-6a269.37,269.37,0,0,0-16-23c-10-13-25-24-25-24l-15-11a35,35,0,0,0-14-12s-9-7-13-7h-4l-2,1-2,1h-2l-4,3-2,1-1,1-2,3-2,2c-2,1-3,5-3,5a7.74,7.74,0,0,0-3-1c-5,0-5,5-5,5s6.76,6,10.51,8.26c.58.35.73,1.22.35,1.46l-3.5,2.21A9.51,9.51,0,0,0,353,286a10,10,0,0,0,3,1s0,1,2,0h3s4,6,11,6c5.92,0,14.71-2.86,17.27-3.74L406,305c5,13,17,26,17,26a27.78,27.78,0,0,0-6,14,26.82,26.82,0,0,0,.37,8.7C431.74,343.41,459,377,459,377s0-22-2-32C457,345,458,336,459,335Z" transform="translate(0 0)"/><path class="cls-12" d="M459,231" transform="translate(0 0)"/><path class="cls-13" d="M491,787" transform="translate(0 0)"/></svg>